<?xml version="1.0" standalone="no"?>
<!DOCTYPE svg PUBLIC "-//W3C//DTD SVG 20010904//EN"
 "http://www.w3.org/TR/2001/REC-SVG-20010904/DTD/svg10.dtd">
<svg version="1.0" xmlns="http://www.w3.org/2000/svg"
 width="122.000000pt" height="26.000000pt" viewBox="0 0 122.000000 26.000000"
 preserveAspectRatio="xMidYMid meet">
<metadata>
Created by potrace 1.12, written by Peter Selinger 2001-2015
</metadata>
<g transform="translate(0.000000,26.000000) scale(0.100000,-0.100000)"
fill="#000000" stroke="none">
<path d="M41 220 c-38 -37 -41 -44 -41 -93 0 -48 3 -56 38 -90 33 -33 44 -37
88 -37 39 0 55 5 77 26 22 20 26 29 16 40 -15 18 -27 18 -45 -1 -22 -22 -80
-19 -104 5 -25 25 -26 80 -1 111 23 28 81 31 109 6 18 -16 20 -16 37 3 17 19
17 20 -14 37 -17 10 -31 21 -31 26 0 4 -20 7 -44 7 -37 0 -49 -6 -85 -40z"/>
<path d="M245 247 c-3 -7 -4 -65 -3 -128 l3 -114 60 0 c58 0 60 1 63 28 3 26
1 27 -37 27 -34 0 -41 3 -41 20 0 16 7 20 30 20 25 0 30 4 30 25 0 21 -5 25
-30 25 -25 0 -30 4 -30 25 0 23 4 25 41 25 38 0 40 1 37 28 -3 26 -6 27 -61
30 -41 2 -59 -1 -62 -11z"/>
<path d="M394 247 c-2 -7 -3 -65 -2 -128 3 -106 4 -114 23 -114 17 0 20 7 20
43 0 39 2 42 26 42 34 0 69 39 69 76 0 34 -25 74 -46 74 -8 0 -14 5 -14 10 0
15 -70 12 -76 -3z"/>
<path d="M604 232 c-41 -35 -54 -61 -54 -111 0 -33 7 -49 36 -81 34 -37 40
-40 89 -40 49 0 55 3 89 40 29 32 36 48 36 81 0 113 -117 180 -196 111z m129
-54 c23 -28 22 -83 -3 -108 -26 -26 -80 -26 -108 0 -24 23 -29 68 -11 101 22
42 89 46 122 7z"/>
<path d="M824 247 c-2 -7 -3 -65 -2 -128 3 -106 4 -114 23 -114 14 0 21 8 23
28 4 35 13 34 33 -2 15 -26 21 -29 74 -29 54 0 58 2 69 29 9 25 15 29 51 29
34 0 43 -5 57 -30 12 -21 25 -30 43 -30 14 0 25 1 25 3 0 1 -29 57 -63 125
l-63 123 -54 -116 c-29 -64 -57 -118 -61 -121 -5 -3 -20 14 -34 37 l-27 41 21
22 c12 12 21 36 21 52 0 34 -25 74 -46 74 -8 0 -14 5 -14 10 0 15 -70 12 -76
-3z"/>
</g>
</svg>
